<?xml version="1.0" encoding="utf-8"?>
<!-- Generator: Adobe Illustrator 17.1.0, SVG Export Plug-In . SVG Version: 6.00 Build 0)  -->
<!DOCTYPE svg PUBLIC "-//W3C//DTD SVG 1.1//EN" "http://www.w3.org/Graphics/SVG/1.1/DTD/svg11.dtd">
<svg version="1.1" id="Layer_1" xmlns="http://www.w3.org/2000/svg" xmlns:xlink="http://www.w3.org/1999/xlink" x="0px" y="0px"
	 viewBox="0 0 278.1 152.2" enable-background="new 0 0 278.1 152.2" xml:space="preserve">
<g>
	<path d="M96.9,89.1h16.4c6.9,0,7.7,4.1,7,7.4c-1.1,5.2-4.5,8.3-9.8,8.3h-10.3l-1.8,8.7h-6.6L96.9,89.1z M101.1,100.3h7.1
		c2,0,4.4-0.1,5.1-3.3c0.7-3.2-1.2-3.4-3.1-3.4h-7.7L101.1,100.3z"/>
	<path d="M125.3,89.1H143c6.7,0,7,4.1,6.5,6.6c-0.6,3-2.2,4.9-5.2,5.9l0,0.1c2.8,0.4,2.5,4.1,2,6.5c-0.3,1.2-0.8,4.1,0.1,5.3h-7.2
		c-0.4-1.1-0.2-2.1,0.3-4.7c0.7-3.4-0.6-4.3-2.6-4.3h-8.2l-1.9,8.9h-6.6L125.3,89.1z M129.6,99.9h8.8c1.5,0,3.3-0.8,3.8-3.1
		c0.5-2.4-1.3-3-2.9-3h-8.4L129.6,99.9z"/>
	<path d="M154.3,89.1h22.7l-1,4.6H160l-1.1,5h15.3l-0.9,4.4H158l-1.2,5.6H173l-1,4.6h-22.9L154.3,89.1z"/>
	<path d="M195.8,96.1c0.3-3.2-2.7-3.5-5.4-3.5c-2.7,0-4.8,1.2-5.1,2.9c-0.3,1.3,0.7,2,2.3,2.3l8,1.3c4.3,0.7,7.3,2.4,6.4,6.8
		c-1,4.5-4.8,8.2-14.4,8.2c-5.9,0-13.5-0.8-11.9-8.4h7.4c-0.6,3.3,2.6,3.9,5.4,3.9c3.1,0,5.4-0.9,5.9-3c0.4-1.9-1-2.4-3.5-2.8
		l-5.8-0.9c-4.1-0.6-7.9-1.9-6.9-6.9c1.2-5.4,6.1-7.6,13.7-7.6c5,0,12.3,0.9,11.3,7.7H195.8z"/>
	<path d="M223.6,96.1c0.3-3.2-2.7-3.5-5.4-3.5c-2.7,0-4.8,1.2-5.1,2.9c-0.3,1.3,0.7,2,2.3,2.3l8,1.3c4.3,0.7,7.3,2.4,6.4,6.8
		c-1,4.5-4.8,8.2-14.4,8.2c-5.9,0-13.5-0.8-11.9-8.4h7.4c-0.6,3.3,2.6,3.9,5.4,3.9c3.1,0,5.4-0.9,5.9-3c0.4-1.9-1-2.4-3.5-2.8
		l-5.8-0.9c-4.1-0.6-7.9-1.9-6.9-6.9c1.2-5.4,6.1-7.6,13.7-7.6c5,0,12.3,0.9,11.2,7.7H223.6z"/>
	<path d="M39.5,39.1H62c6.4,0,12.6,3.2,12.6,12c0,7.9-5.2,12.2-14.5,12.2H43.8v17.5h-4.3V39.1z M43.8,59.3h16.7
		c7.2,0,9.4-3.3,9.4-8.2c0-6.3-3.5-8.1-8.5-8.1H43.8V59.3z"/>
	<path d="M121.3,64.9c-0.9,9.4-8.6,17-20.6,17c-13.6,0-22.2-8.5-22.2-21.9c0-9.5,5.9-21.9,22.2-21.9c9.1,0,19,4.1,20.3,15.1h-4.3
		c-1.3-7.9-8.4-11.2-16-11.2C90.3,42,83.1,47.8,83.1,60c0,9.3,4.9,17.9,17.5,17.9c9.9,0,14.8-5,16.3-13H121.3z"/>
	<path d="M128,39.1h4.3v41.7H128V39.1z"/>
	<path d="M43.2,89.1H66l-1,4.6H48.8l-1.1,5h15.3l-0.9,4.4H46.8l-1.2,5.6h16.3l-1,4.6H38L43.2,89.1z"/>
	<path d="M74.7,100.9l-7-11.8h7.9l3.7,7.6l7-7.6h7.9l-12,11.8l7.7,12.6h-8.2l-4.2-8.2l-7.7,8.2h-8.2L74.7,100.9z"/>
	<g>
		<polygon fill="#0060A9" points="173.7,54.4 153.2,38.9 143.5,38.9 162.1,53.3 		"/>
		<polygon fill="#0060A9" points="162,66.2 143.5,80.5 153.2,80.5 173.7,65.1 		"/>
	</g>
	<g>
		<polygon fill="#0060A9" points="228.5,59.7 160.6,38.9 185.1,55.5 		"/>
		<polygon fill="#0060A9" points="184.9,64 160.6,80.5 228.6,59.8 		"/>
	</g>
	<g>
		<path d="M239.1,94.1c-0.7,0.7-1.5,1-2.4,1c-0.9,0-1.7-0.3-2.4-1c-0.7-0.7-1-1.5-1-2.4c0-0.9,0.3-1.7,1-2.4c0.7-0.7,1.4-1,2.4-1
			c0.9,0,1.7,0.3,2.4,1c0.7,0.7,1,1.4,1,2.4C240.1,92.6,239.7,93.4,239.1,94.1z M234.6,89.6c-0.6,0.6-0.9,1.3-0.9,2.1
			c0,0.8,0.3,1.5,0.8,2.1c0.6,0.6,1.3,0.9,2.1,0.9c0.8,0,1.5-0.3,2.1-0.9c0.6-0.6,0.9-1.3,0.9-2.1c0-0.8-0.3-1.5-0.9-2.1
			c-0.6-0.6-1.3-0.9-2.1-0.9C235.9,88.8,235.2,89.1,234.6,89.6z M236.6,89.8c0.5,0,0.8,0,1,0.1c0.4,0.2,0.6,0.5,0.6,0.9
			c0,0.3-0.1,0.6-0.4,0.7c-0.1,0.1-0.3,0.1-0.5,0.2c0.3,0,0.5,0.2,0.6,0.4c0.1,0.2,0.2,0.4,0.2,0.6V93c0,0.1,0,0.2,0,0.3
			c0,0.1,0,0.2,0,0.2l0,0h-0.6c0,0,0,0,0,0c0,0,0,0,0,0l0-0.1V93c0-0.4-0.1-0.7-0.4-0.8c-0.1-0.1-0.4-0.1-0.7-0.1H236v1.5h-0.6v-3.7
			H236.6z M237.3,90.4c-0.2-0.1-0.4-0.1-0.8-0.1H236v1.3h0.6c0.3,0,0.5,0,0.6-0.1c0.3-0.1,0.4-0.3,0.4-0.6
			C237.6,90.7,237.5,90.5,237.3,90.4z"/>
	</g>
</g>
<rect x="0" y="0" fill="none" width="278.1" height="152.2"/>
</svg>
