<?xml version="1.0" encoding="utf-8"?>
<!-- Generator: Adobe Illustrator 18.0.0, SVG Export Plug-In . SVG Version: 6.00 Build 0)  -->
<!DOCTYPE svg PUBLIC "-//W3C//DTD SVG 1.1//EN" "http://www.w3.org/Graphics/SVG/1.1/DTD/svg11.dtd">
<svg version="1.1" id="NVIDIA_Logo_1_" xmlns="http://www.w3.org/2000/svg" xmlns:xlink="http://www.w3.org/1999/xlink" x="0px"
	 y="0px" viewBox="172.5 273.6 270 230" enable-background="new 172.5 273.6 270 230" xml:space="preserve">
<g>
	<path id="Reg_1_" d="M419.9,471.9v-1h0.6c0.3,0,0.8,0,0.8,0.4c0,0.4-0.3,0.5-0.6,0.5L419.9,471.9 M419.9,472.6h0.4l0.9,1.7h1
		l-1-1.7c0.5,0,1-0.3,1-1c0-0.9-0.6-1.2-1.7-1.2H419v4h0.9V472.6 M424.4,472.2c0-2.3-1.8-3.7-3.9-3.7c-2.1,0-3.9,1.4-3.9,3.7
		c0,2.3,1.8,3.7,3.9,3.7C422.6,476,424.4,474.6,424.4,472.2 M423.3,472.2c0,1.7-1.3,2.8-2.7,2.8l0,0c-1.5,0-2.7-1.1-2.7-2.8
		c0-1.7,1.2-2.8,2.7-2.8C422.1,469.4,423.3,470.6,423.3,472.2z"/>
	<path id="NVIDIA_4_" d="M283.6,432.8v41.9h11.8v-41.9H283.6z M190.5,432.7v42h12v-31.9h9.3c3.1,0,5.3,0.8,6.7,2.3
		c1.9,2,2.6,5.2,2.6,11.1v18.4h11.6v-23.2c0-16.6-10.5-18.8-20.9-18.8L190.5,432.7L190.5,432.7z M302.7,432.8v41.9h19.2
		c10.2,0,13.6-1.7,17.2-5.5c2.6-2.7,4.2-8.6,4.2-15c0-5.9-1.4-11.2-3.8-14.4c-4.4-5.9-10.7-7-20.1-7H302.7L302.7,432.8z
		 M314.4,441.9h5.1c7.4,0,12.2,3.3,12.2,11.9c0,8.6-4.8,11.9-12.2,11.9h-5.1V441.9z M266.5,432.8l-9.9,33.2l-9.5-33.2h-12.8
		l13.5,41.9H265l13.6-41.9H266.5z M348.8,474.7h11.8v-41.9h-11.8V474.7z M382,432.8l-16.5,41.9h11.7l2.6-7.4h19.5l2.5,7.4h12.7
		l-16.7-41.9H382z M389.6,440.4l7.2,19.6h-14.6L389.6,440.4z"/>
	<path id="Eye_Mark_1_" fill="#74B71B" d="M268,334.6v-10.1c1-0.1,2-0.1,3-0.1c27.5-0.9,45.6,23.7,45.6,23.7s-19.5,27.1-40.5,27.1
		c-3,0-5.7-0.5-8.1-1.3v-30.5c10.7,1.3,12.9,6,19.3,16.8l14.3-12.1c0,0-10.5-13.7-28.1-13.7C271.6,334.3,269.8,334.4,268,334.6
		 M268,301.3v15c1-0.1,2-0.1,3-0.2c38.3-1.3,63.3,31.4,63.3,31.4s-28.7,34.8-58.5,34.8c-2.7,0-5.3-0.3-7.7-0.7v9.3
		c2.1,0.3,4.2,0.4,6.4,0.4c27.8,0,47.9-14.2,67.3-31c3.2,2.6,16.4,8.9,19.2,11.6c-18.5,15.5-61.6,28-86,28c-2.3,0-4.6-0.1-6.8-0.4
		v13.1h105.6V301.3H268z M268,373.8v7.9c-25.7-4.6-32.8-31.3-32.8-31.3s12.3-13.7,32.8-15.9v8.7h0c-10.8-1.3-19.2,8.7-19.2,8.7
		S253.5,368.9,268,373.8 M222.3,349.3c0,0,15.2-22.5,45.6-24.8v-8.1c-33.7,2.7-62.9,31.2-62.9,31.2s16.5,47.8,62.9,52.1V391
		C234,386.8,222.3,349.3,222.3,349.3z"/>
</g>
</svg>
