<?xml version="1.0" encoding="utf-8"?>
<!-- Generator: Adobe Illustrator 17.1.0, SVG Export Plug-In . SVG Version: 6.00 Build 0)  -->
<!DOCTYPE svg PUBLIC "-//W3C//DTD SVG 1.1//EN" "http://www.w3.org/Graphics/SVG/1.1/DTD/svg11.dtd">
<svg version="1.1" id="NVIDIA_Logo_1_" xmlns="http://www.w3.org/2000/svg" xmlns:xlink="http://www.w3.org/1999/xlink" x="0px"
	 y="0px" viewBox="0 0 1700 1000" enable-background="new 0 0 1700 1000" xml:space="preserve">
<g>
	<path id="Reg_1_" d="M1166.5,710.8v-2.7h1.7c0.9,0,2.2,0.1,2.2,1.2c0,1.2-0.7,1.4-1.8,1.4H1166.5 M1166.5,712.7h1.1l2.6,4.6h2.9
		l-2.9-4.8c1.5-0.1,2.8-0.8,2.8-2.9c0-2.5-1.7-3.3-4.7-3.3h-4.3v11h2.5V712.7 M1179,711.8c0-6.5-5-10.2-10.7-10.2
		c-5.7,0-10.7,3.8-10.7,10.2c0,6.5,5,10.3,10.7,10.3C1173.9,722.1,1179,718.3,1179,711.8 M1175.9,711.8c0,4.7-3.5,7.9-7.6,7.9v0
		c-4.2,0-7.6-3.1-7.6-7.9c0-4.7,3.4-7.9,7.6-7.9C1172.4,704,1175.9,707.1,1175.9,711.8z"/>
	<path id="NVIDIA_4_" d="M787.9,602.1l0,116.4h32.9V602.1L787.9,602.1z M529.2,601.9v116.6h33.2V630l25.7,0c8.5,0,14.6,2.1,18.7,6.5
		c5.2,5.5,7.3,14.5,7.3,30.8v51.2h32.1v-64.4c0-46-29.3-52.2-58-52.2H529.2z M840.8,602.1v116.4h53.3c28.4,0,37.7-4.7,47.7-15.3
		c7.1-7.4,11.7-23.8,11.7-41.6c0-16.4-3.9-31-10.6-40.1c-12.2-16.3-29.7-19.4-55.9-19.4H840.8z M873.4,627.4h14.1
		c20.5,0,33.8,9.2,33.8,33.1c0,23.9-13.3,33.1-33.8,33.1h-14.1V627.4z M740.4,602.1L713,694.3l-26.3-92.3l-35.5,0l37.6,116.4h47.4
		L774,602.1H740.4z M968.8,718.5h32.9V602.1l-32.9,0L968.8,718.5z M1061,602.1l-45.9,116.3h32.4l7.3-20.6h54.3l6.9,20.6h35.2
		l-46.3-116.3L1061,602.1z M1082.3,623.3l19.9,54.5h-40.5L1082.3,623.3z"/>
	<path id="Eye_Mark_1_" fill="#74B71B" d="M744.4,329.4v-28c2.7-0.2,5.5-0.3,8.3-0.4c76.5-2.4,126.7,65.7,126.7,65.7
		S825.1,442,767,442c-8.4,0-15.9-1.3-22.6-3.6v-84.8c29.8,3.6,35.8,16.8,53.7,46.6l39.8-33.6c0,0-29.1-38.1-78.1-38.1
		C754.5,328.5,749.4,328.8,744.4,329.4 M744.4,237v41.8c2.7-0.2,5.5-0.4,8.3-0.5c106.4-3.6,175.7,87.2,175.7,87.2
		s-79.6,96.8-162.5,96.8c-7.6,0-14.7-0.7-21.4-1.9v25.8c5.7,0.7,11.6,1.2,17.8,1.2c77.2,0,133-39.4,187-86.1
		c9,7.2,45.6,24.6,53.2,32.3c-51.4,43-171.1,77.7-239,77.7c-6.5,0-12.8-0.4-19-1v36.3h293.3V237H744.4z M744.4,438.4v22
		c-71.4-12.7-91.2-86.9-91.2-86.9s34.3-38,91.2-44.1v24.2c0,0-0.1,0-0.1,0c-29.9-3.6-53.2,24.3-53.2,24.3S704.1,424.8,744.4,438.4
		 M617.6,370.3c0,0,42.3-62.4,126.8-68.9v-22.6c-93.6,7.5-174.6,86.7-174.6,86.7s45.9,132.7,174.6,144.8v-24.1
		C649.9,474.4,617.6,370.3,617.6,370.3z"/>
</g>
</svg>
